<svg width="115" height="68" viewBox="0 0 115 68" fill="none" xmlns="http://www.w3.org/2000/svg">
<g clip-path="url(#clip0_12_5)">
<path d="M10.68 65.88C9.16 65.88 7.58 65.54 5.94 64.86C4.34 64.22 3.2 63.18 2.52 61.74C2.24 61.22 2.06 60.66 1.98 60.06C1.94 59.5 1.92 58.94 1.92 58.38V57.72C1.92 57.4 1.96 57.1 2.04 56.82C2.12 56.58 2.32 56.46 2.64 56.46C2.72 56.46 2.76 56.5 2.76 56.58C2.76 56.82 2.74 57.06 2.7 57.3C2.66 57.54 2.64 57.8 2.64 58.08C2.64 59.92 3.22 61.32 4.38 62.28C5.58 63.24 7.06 63.72 8.82 63.72C11.34 63.72 13.66 63.1 15.78 61.86C17.9 60.62 19.82 58.92 21.54 56.76C23.22 54.68 24.58 52.64 25.62 50.64C26.7 48.68 27.64 46.68 28.44 44.64C29.24 42.6 30.06 40.5 30.9 38.34C29.86 39.9 28.42 41.34 26.58 42.66C24.74 43.94 22.74 44.96 20.58 45.72C18.46 46.52 16.4 46.92 14.4 46.92C12.28 46.92 10.28 46.54 8.4 45.78C6.56 45.06 5.08 43.96 3.96 42.48C2.84 41 2.28 39.14 2.28 36.9C2.28 34.3 2.78 31.76 3.78 29.28C4.78 26.8 6.12 24.5 7.8 22.38C9.48 20.22 11.36 18.36 13.44 16.8C15.28 15.4 17.4 14.26 19.8 13.38C22.24 12.5 24.66 12.06 27.06 12.06C28.06 12.06 29 12.14 29.88 12.3C30.76 12.42 31.66 12.7 32.58 13.14C33.38 13.5 34.02 13.96 34.5 14.52C34.98 15.04 35.22 15.64 35.22 16.32C35.22 16.4 35.22 16.5 35.22 16.62C35.22 16.74 35.2 16.84 35.16 16.92C35 17.56 34.62 18.3 34.02 19.14C33.46 19.94 33.02 20.78 32.7 21.66C32.66 21.82 32.44 21.96 32.04 22.08C31.64 22.16 31.48 22.12 31.56 21.96C31.88 21.44 32.12 20.8 32.28 20.04C32.48 19.28 32.58 18.52 32.58 17.76C32.58 17.2 32.52 16.68 32.4 16.2C32.32 15.68 32.16 15.24 31.92 14.88C31.52 14.16 30.9 13.66 30.06 13.38C29.22 13.1 28.32 12.96 27.36 12.96C26.44 12.96 25.52 13.06 24.6 13.26C23.68 13.46 22.88 13.68 22.2 13.92C19.88 14.76 17.66 16.08 15.54 17.88C13.66 19.52 11.98 21.42 10.5 23.58C9.06 25.74 7.92 27.96 7.08 30.24C6.24 32.52 5.82 34.7 5.82 36.78C5.82 38.9 6.22 40.62 7.02 41.94C7.86 43.26 8.96 44.24 10.32 44.88C11.68 45.48 13.14 45.78 14.7 45.78C17.94 45.78 20.78 45.04 23.22 43.56C25.7 42.04 27.8 40.06 29.52 37.62C31.24 35.18 32.56 32.56 33.48 29.76H27.3C26.82 29.76 26.16 29.8 25.32 29.88C24.48 29.92 23.62 30.06 22.74 30.3C21.86 30.5 21.12 30.84 20.52 31.32C19.92 31.8 19.62 32.46 19.62 33.3C19.62 33.58 19.66 33.88 19.74 34.2C19.82 34.48 19.88 34.7 19.92 34.86L19.38 35.22C19.1 34.7 18.76 34.16 18.36 33.6C18 33 17.8 32.52 17.76 32.16C17.72 31.84 17.74 31.42 17.82 30.9C17.9 30.38 18.16 29.92 18.6 29.52C19.08 29.08 19.76 28.8 20.64 28.68C21.56 28.52 22.5 28.44 23.46 28.44C24.34 28.44 25.18 28.48 25.98 28.56C26.78 28.6 27.42 28.62 27.9 28.62H39.3L38.64 29.34C38.08 29.34 37.46 29.44 36.78 29.64C36.1 29.8 35.54 30.16 35.1 30.72C34.22 31.84 33.54 33.1 33.06 34.5C32.62 35.9 32.16 37.38 31.68 38.94C30.88 41.78 30.1 44.56 29.34 47.28C28.58 50.04 27.56 52.64 26.28 55.08C25.04 57.56 23.22 59.84 20.82 61.92C19.54 63 17.94 63.92 16.02 64.68C14.1 65.48 12.32 65.88 10.68 65.88ZM39.9703 45.18C39.5703 45.18 39.2303 45.1 38.9503 44.94C38.6703 44.78 38.5303 44.48 38.5303 44.04C38.5303 43.48 38.6703 42.82 38.9503 42.06C39.2703 41.3 39.6103 40.54 39.9703 39.78C40.3303 39.02 40.6303 38.4 40.8703 37.92C41.3503 37 41.8103 36.08 42.2503 35.16C42.6903 34.24 43.0703 33.46 43.3903 32.82C43.7103 32.22 43.8703 31.82 43.8703 31.62C43.8703 31.3 43.6303 31.3 43.1503 31.62C42.7103 31.94 42.2903 32.26 41.8903 32.58C41.0103 33.42 40.0903 34.42 39.1303 35.58C38.1703 36.7 37.4303 37.6 36.9103 38.28C36.7903 38.44 36.6903 38.52 36.6103 38.52C36.5303 38.52 36.4903 38.42 36.4903 38.22C36.4903 37.9 36.5903 37.6 36.7903 37.32C37.3503 36.52 38.0103 35.64 38.7703 34.68C39.5303 33.72 40.3103 32.8 41.1103 31.92C41.8703 31.12 42.6503 30.34 43.4503 29.58C44.2503 28.82 45.2703 28.44 46.5103 28.44C47.3503 28.44 47.7703 28.76 47.7703 29.4C47.7703 29.96 47.5303 30.6 47.0503 31.32C46.7703 31.76 46.3303 32.5 45.7303 33.54C45.1303 34.58 44.5103 35.72 43.8703 36.96C43.2703 38.16 42.7503 39.28 42.3103 40.32C41.8703 41.36 41.6503 42.12 41.6503 42.6C41.6503 43.16 41.9303 43.44 42.4903 43.44C42.9303 43.44 43.4703 43.22 44.1103 42.78C44.7503 42.3 45.4103 41.74 46.0903 41.1C47.3303 39.9 48.4503 38.6 49.4503 37.2C50.4903 35.76 51.3703 34.38 52.0903 33.06C52.8503 31.74 53.4503 30.66 53.8903 29.82C53.9703 29.66 54.0503 29.48 54.1303 29.28C54.2503 29.04 54.4303 28.9 54.6703 28.86C54.9103 28.82 55.4303 28.8 56.2303 28.8C57.0303 28.8 57.7703 28.64 58.4503 28.32H58.5703C58.6903 28.32 58.7503 28.38 58.7503 28.5C58.7503 28.82 58.4903 29.06 57.9703 29.22C57.4903 29.38 56.9303 29.86 56.2903 30.66C55.6903 31.46 55.0903 32.44 54.4903 33.6C53.8903 34.72 53.3503 35.88 52.8703 37.08C52.3903 38.28 52.0303 39.38 51.7903 40.38C51.5503 41.38 51.4903 42.12 51.6103 42.6C51.7703 43.16 52.0503 43.44 52.4503 43.44C52.9703 43.44 53.6903 43.12 54.6103 42.48C55.5703 41.84 56.5503 41.08 57.5503 40.2C58.5503 39.28 59.3703 38.44 60.0103 37.68C60.2903 37.36 60.5503 37.04 60.7903 36.72C61.0303 36.4 61.1903 36.2 61.2703 36.12C61.3103 36.16 61.3503 36.24 61.3903 36.36C61.4303 36.44 61.4503 36.52 61.4503 36.6C61.4103 36.88 61.3103 37.16 61.1503 37.44C60.9903 37.68 60.8103 37.9 60.6103 38.1C59.8503 39.1 58.9303 40.16 57.8503 41.28C56.8103 42.36 55.6703 43.28 54.4303 44.04C53.2303 44.8 51.9903 45.18 50.7103 45.18C50.3103 45.18 49.8503 45.08 49.3303 44.88C48.8503 44.68 48.6103 44.24 48.6103 43.56C48.6103 43.04 48.7503 42.34 49.0303 41.46C49.3103 40.54 49.6103 39.64 49.9303 38.76C50.2903 37.84 50.5903 37.16 50.8303 36.72C50.3103 37.48 49.6703 38.34 48.9103 39.3C48.1903 40.22 47.4503 41.04 46.6903 41.76C45.6903 42.72 44.6103 43.54 43.4503 44.22C42.3303 44.86 41.1703 45.18 39.9703 45.18ZM63.765 45.96C63.045 45.96 62.285 45.86 61.485 45.66C60.685 45.46 59.965 45.14 59.325 44.7C58.725 44.22 58.325 43.58 58.125 42.78C58.085 42.66 58.065 42.48 58.065 42.24C58.065 41.68 58.185 41.06 58.425 40.38C58.705 39.7 59.045 39.22 59.445 38.94C59.605 38.86 59.725 38.86 59.805 38.94C59.925 39.02 59.945 39.1 59.865 39.18C59.825 39.3 59.765 39.46 59.685 39.66C59.605 39.82 59.545 40 59.505 40.2C59.385 41.24 59.605 42.16 60.165 42.96C60.405 43.28 60.685 43.58 61.005 43.86C61.365 44.14 61.705 44.38 62.025 44.58C62.305 44.74 62.645 44.86 63.045 44.94C63.445 44.98 63.845 45 64.245 45C64.885 45 65.505 44.92 66.105 44.76C66.705 44.6 67.145 44.34 67.425 43.98C67.945 43.34 68.205 42.62 68.205 41.82C68.205 41.22 68.045 40.58 67.725 39.9C67.405 39.22 66.905 38.5 66.225 37.74C65.785 37.26 65.365 36.74 64.965 36.18C64.565 35.62 64.305 35.02 64.185 34.38C64.145 34.26 64.105 34.14 64.065 34.02C64.065 33.9 64.065 33.78 64.065 33.66C63.545 34.42 63.005 35.14 62.445 35.82C61.925 36.46 61.465 37.02 61.065 37.5C60.905 37.74 60.765 37.86 60.645 37.86C60.565 37.86 60.525 37.78 60.525 37.62C60.525 37.26 60.685 36.88 61.005 36.48C61.325 36.12 61.685 35.68 62.085 35.16C62.485 34.6 62.805 34.16 63.045 33.84C63.725 32.84 64.225 32.06 64.545 31.5C64.905 30.9 65.285 30.36 65.685 29.88C66.125 29.36 66.665 28.94 67.305 28.62C67.985 28.3 68.685 28.14 69.405 28.14C70.245 28.14 71.005 28.28 71.685 28.56C72.405 28.8 72.785 29.44 72.825 30.48C72.825 30.96 72.725 31.46 72.525 31.98C72.365 32.46 72.185 32.92 71.985 33.36C71.865 33.6 71.685 33.78 71.445 33.9C71.245 33.98 71.145 33.94 71.145 33.78C71.145 33.62 71.165 33.44 71.205 33.24C71.245 33.04 71.265 32.86 71.265 32.7C71.265 32.02 71.145 31.42 70.905 30.9C70.705 30.34 70.405 29.94 70.005 29.7C69.605 29.42 69.185 29.28 68.745 29.28C68.105 29.28 67.485 29.54 66.885 30.06C66.285 30.54 65.985 31.18 65.985 31.98C65.985 32.06 65.985 32.16 65.985 32.28C65.985 32.4 66.005 32.5 66.045 32.58C66.205 33.22 66.685 33.94 67.485 34.74C68.285 35.54 68.905 36.24 69.345 36.84C70.105 37.88 70.485 38.94 70.485 40.02C70.485 41.1 70.165 42.1 69.525 43.02C68.925 43.9 68.105 44.6 67.065 45.12C66.065 45.68 64.965 45.96 63.765 45.96ZM76.5103 45.18C76.1103 45.18 75.7703 45.1 75.4903 44.94C75.2103 44.78 75.0703 44.48 75.0703 44.04C75.0703 43.48 75.2103 42.82 75.4903 42.06C75.8103 41.3 76.1503 40.54 76.5103 39.78C76.8703 39.02 77.1703 38.4 77.4103 37.92C77.6103 37.56 77.8703 37 78.1903 36.24C78.5503 35.44 78.9103 34.62 79.2703 33.78C79.6703 32.9 79.9903 32.16 80.2303 31.56C80.5103 30.96 80.6503 30.66 80.6503 30.66C80.2903 31.06 79.8103 31.62 79.2103 32.34C78.6503 33.06 78.0303 33.82 77.3503 34.62C76.7103 35.38 76.1103 36.1 75.5503 36.78C75.0303 37.46 74.6503 37.96 74.4103 38.28C74.2903 38.44 74.1903 38.52 74.1103 38.52C74.0303 38.52 73.9903 38.42 73.9903 38.22C73.9903 37.9 74.0903 37.6 74.2903 37.32C74.7703 36.72 75.3503 36 76.0303 35.16C76.7103 34.28 77.3903 33.4 78.0703 32.52C78.7903 31.64 79.4103 30.86 79.9303 30.18C79.6103 30.18 79.1903 30.2 78.6703 30.24C78.1903 30.28 77.7503 30.34 77.3503 30.42C76.9503 30.46 76.7303 30.48 76.6903 30.48C76.4903 30.48 76.5103 30.32 76.7503 30C76.9903 29.68 77.3103 29.36 77.7103 29.04C78.1103 28.72 78.4103 28.56 78.6103 28.56C78.6503 28.56 78.9703 28.58 79.5703 28.62C80.1703 28.62 80.6103 28.62 80.8903 28.62C81.6903 27.54 82.4703 26.3 83.2303 24.9C84.0303 23.5 84.8103 21.96 85.5703 20.28C85.8903 20.24 86.4303 20.02 87.1903 19.62C87.9903 19.18 88.6103 18.74 89.0503 18.3C89.2503 18.1 89.4103 18 89.5303 18C89.7703 18 89.7703 18.16 89.5303 18.48C89.2503 18.8 88.7703 19.48 88.0903 20.52C87.4103 21.52 86.6503 22.74 85.8103 24.18C84.9703 25.58 84.1703 27.06 83.4103 28.62H88.2703C88.7103 28.62 88.9303 28.68 88.9303 28.8C88.9303 28.96 88.6303 29.12 88.0303 29.28C87.3503 29.48 86.6303 29.6 85.8703 29.64C85.1503 29.68 84.4703 29.76 83.8303 29.88C83.2303 30 82.7903 30.26 82.5103 30.66C82.2703 30.94 81.9303 31.54 81.4903 32.46C81.0503 33.38 80.5703 34.44 80.0503 35.64C79.5703 36.8 79.1503 37.98 78.7903 39.18C78.4303 40.34 78.2103 41.32 78.1303 42.12V42.36C78.1303 42.68 78.2303 42.94 78.4303 43.14C78.6303 43.34 78.8303 43.44 79.0303 43.44C79.5503 43.44 80.2103 43.12 81.0103 42.48C81.8503 41.84 82.7103 41.08 83.5903 40.2C84.4703 39.28 85.2303 38.44 85.8703 37.68C86.1503 37.36 86.3903 37.06 86.5903 36.78C86.8303 36.5 86.9703 36.32 87.0103 36.24C87.0903 36.4 87.1303 36.52 87.1303 36.6C87.1303 36.84 87.0503 37.1 86.8903 37.38C86.7703 37.66 86.6303 37.9 86.4703 38.1C85.7103 39.1 84.7903 40.16 83.7103 41.28C82.6303 42.36 81.4703 43.28 80.2303 44.04C79.0303 44.8 77.7903 45.18 76.5103 45.18ZM86.9648 45.12C86.3248 45.12 85.7448 45 85.2248 44.76C84.7448 44.48 84.5048 43.9 84.5048 43.02C84.5048 41.62 84.8648 40.22 85.5848 38.82C86.3048 37.38 87.0448 36.12 87.8048 35.04C88.4848 34.12 89.2448 33.26 90.0848 32.46C90.9648 31.62 91.9048 30.9 92.9048 30.3C93.5448 29.9 94.4048 29.48 95.4848 29.04C96.6048 28.56 97.5448 28.32 98.3048 28.32C98.9448 28.32 99.5048 28.5 99.9848 28.86C100.465 29.18 100.705 29.78 100.705 30.66C100.705 32.02 100.345 33.42 99.6248 34.86C98.9448 36.26 98.2248 37.5 97.4648 38.58C97.1048 39.06 96.7448 39.52 96.3848 39.96C96.0248 40.36 95.6248 40.78 95.1848 41.22C96.6648 41.22 98.0248 40.8 99.2648 39.96C100.505 39.08 101.585 38.02 102.505 36.78L102.625 36.66C102.745 36.66 102.805 36.78 102.805 37.02C102.805 37.3 102.725 37.56 102.565 37.8C101.765 38.92 100.765 39.92 99.5648 40.8C98.3648 41.64 97.0048 42.06 95.4848 42.06C95.3248 42.06 95.1648 42.06 95.0048 42.06C94.8448 42.06 94.6848 42.04 94.5248 42C92.2848 44.08 89.7648 45.12 86.9648 45.12ZM88.5248 44.1C89.0848 44.1 89.6848 43.9 90.3248 43.5C91.0048 43.1 91.5248 42.72 91.8848 42.36C92.5648 41.68 93.1848 40.96 93.7448 40.2C94.3048 39.4 94.8248 38.6 95.3048 37.8C95.8648 36.84 96.4248 35.7 96.9848 34.38C97.5448 33.06 97.8248 31.82 97.8248 30.66C97.8248 29.74 97.5048 29.28 96.8648 29.28C96.3448 29.28 95.7048 29.5 94.9448 29.94C94.2248 30.38 93.6848 30.78 93.3248 31.14C91.9648 32.54 90.8248 34.06 89.9048 35.7C89.3848 36.62 88.8248 37.7 88.2248 38.94C87.6248 40.18 87.3248 41.32 87.3248 42.36C87.3248 42.52 87.3248 42.68 87.3248 42.84C87.3648 42.96 87.4048 43.1 87.4448 43.26C87.6048 43.82 87.9648 44.1 88.5248 44.1Z" fill="white"/>
<circle cx="109.5" cy="24.5" r="2.5" fill="#F4B350"/>
<circle cx="102" cy="14" r="6" fill="#F4B350"/>
</g>
<defs>
<clipPath id="clip0_12_5">
<rect width="115" height="68" fill="white"/>
</clipPath>
</defs>
</svg>
